# Blender 3.6.0
# www.blender.org
mtllib  instance flowers.mtl
o flower_3_C
v -0.960462 0.019806 -0.038853
v -0.952084 0.028645 -0.059097
v -0.940736 -0.022332 -0.061494
v -0.935126 0.029929 -0.084050
v -0.926480 -0.013835 -0.081040
v -0.957728 -0.021538 -0.047340
v -0.972966 0.011051 -0.031921
v -0.975954 -0.009215 -0.033026
v -0.964496 -0.013633 -0.022394
v -0.971679 -0.034609 -0.014235
v -1.005966 -0.000504 0.005625
v -0.985930 -0.054050 0.003953
v -1.011907 -0.021182 0.019575
v -0.998073 0.009974 -0.012197
v -0.967501 -0.001630 -0.033706
v -0.982482 0.012375 -0.033175
v -0.975933 0.022064 -0.021901
v -0.985432 0.043299 -0.026018
v -0.953797 0.035082 -0.066821
v -0.987860 0.070895 -0.038037
v -0.958730 0.060021 -0.070166
v -0.958215 0.014643 -0.059581
v -0.976446 0.005837 -0.026084
v -0.969082 -0.002749 -0.043199
v -0.953353 -0.002383 -0.039160
v -0.943535 -0.019780 -0.051773
v -0.973163 -0.044451 -0.016464
v -0.933926 -0.047733 -0.057950
v -0.959532 -0.064309 -0.025259
v -0.982503 -0.024440 -0.017887
v -0.967406 0.006410 -0.036658
v -0.984283 0.000186 -0.026795
v -0.978531 0.001562 -0.011667
v -0.997721 0.004599 0.001773
v -0.993929 0.048932 -0.025675
v -1.019454 0.019686 0.016331
v -1.011408 0.056098 -0.008337
v -0.982977 0.034267 -0.038113
v -0.973120 -0.001986 -0.027133
v -0.973033 0.010551 -0.043371
v -0.984643 0.000019 -0.042653
v -0.948321 -0.018661 -0.090472
v -0.953436 -0.039946 -0.076863
v -0.959290 0.008202 -0.061106
v -0.967264 -0.026276 -0.036459
v -0.989187 0.055649 -0.070596
v -0.973810 0.041677 -0.085853
v -0.985924 0.031307 -0.037412
v -1.029439 0.017123 -0.003644
v -1.025525 0.037433 -0.019026
v -0.994178 -0.002305 -0.012781
v -0.989772 -0.058333 -0.021529
v -1.006689 -0.044316 -0.008047
v -0.994263 0.010082 -0.018136
v -0.955883 -0.008283 -0.055674
v -0.952600 0.022929 0.018176
v -0.914220 0.004564 -0.019362
v -0.975288 0.025666 -0.045420
v -0.978421 -0.026517 -0.023364
v -0.933625 0.038513 -0.009109
v -0.936758 -0.013670 0.012948
v -0.983772 0.000067 -0.041132
v -0.984329 0.000656 -0.042064
v -0.983223 0.000135 -0.042236
v -1.016322 -0.062868 -0.059448
v -1.018471 -0.061406 -0.062891
v -1.014219 -0.062095 -0.063134
v -1.007448 -0.132699 -0.079934
v -1.010230 -0.132176 -0.084801
v -1.004713 -0.131071 -0.084579
v -0.987120 -0.202092 -0.090717
v -0.989474 -0.202215 -0.095098
v -0.984554 -0.201497 -0.094937
v -0.986382 -0.276207 -0.087175
v -0.989046 -0.276445 -0.092148
v -0.983402 -0.276379 -0.091968
v -0.967938 -0.092878 -0.151841
v -0.968817 -0.092044 -0.151603
v -0.968933 -0.092804 -0.152569
v -0.977969 -0.110042 -0.138014
v -0.980516 -0.107159 -0.135994
v -0.982077 -0.109484 -0.139317
v -0.980575 -0.128972 -0.122056
v -0.982385 -0.124491 -0.119130
v -0.986059 -0.127618 -0.122069
v -0.985508 -0.139284 -0.099596
v -0.986426 -0.135177 -0.097026
v -0.989796 -0.136919 -0.100176
v -0.999061 -0.154444 -0.087883
v -1.000794 -0.150220 -0.084561
v -1.003571 -0.151375 -0.089340
v -1.002860 -0.012984 -0.034450
v -1.058852 -0.008869 -0.041318
v -1.006555 -0.057214 -0.084251
v -1.062548 -0.053099 -0.091119
v -1.004924 -0.039106 -0.052772
v -1.061337 -0.039764 -0.067021
v -1.017208 -0.167185 -0.111493
v -0.973006 -0.167531 -0.145414
v -0.979135 -0.130197 -0.072755
v -0.934932 -0.130542 -0.106676
v -0.997469 -0.155856 -0.089719
v -0.948662 -0.150308 -0.119261
v -0.992900 -0.118753 -0.150500
v -1.015350 -0.092423 -0.203118
v -0.953775 -0.055918 -0.144396
v -0.976224 -0.029588 -0.197013
v -0.968263 -0.093071 -0.151316
v -0.986767 -0.057893 -0.202475
vn 0.7271 -0.0105 0.6865
vn 0.7115 -0.0227 0.7023
vn 0.5535 -0.1303 0.8226
vn 0.7946 0.1137 0.5964
vn 0.7947 0.1122 0.5965
vn 0.7887 0.1703 0.5907
vn 0.6064 0.4292 0.6693
vn 0.6070 0.4501 0.6550
vn 0.5945 0.6222 0.5093
vn 0.6368 0.2728 0.7212
vn 0.6359 0.2739 0.7215
vn 0.6700 0.2286 0.7063
vn 0.8712 0.1106 0.4783
vn 0.8751 0.0855 0.4763
vn 0.8847 -0.1379 0.4453
vn 0.8078 0.2565 0.5307
vn 0.8087 0.2560 0.5296
vn 0.7728 0.2755 0.5717
vn 0.5625 0.1876 0.8052
vn 0.5448 0.2039 0.8134
vn 0.3732 0.3421 0.8624
vn 0.6883 0.1238 0.7148
vn 0.6873 0.1233 0.7158
vn 0.7248 0.1411 0.6743
vn 0.7983 0.3813 0.4661
vn 0.8123 0.3766 0.4454
vn 0.9125 0.3238 0.2501
vn 0.7111 0.3553 0.6067
vn 0.7113 0.3564 0.6058
vn 0.6998 0.3121 0.6426
vn 0.8028 0.2462 0.5431
vn 0.7618 0.1892 0.6196
vn 0.9434 0.0061 0.3317
vn 0.7613 0.2562 0.5956
vn 0.7463 0.3234 0.5817
vn 0.7746 0.5504 0.3115
vn 0.7088 0.2650 0.6538
vn 0.4413 0.4684 0.7654
vn 0.6056 -0.0760 0.7921
vn -0.0573 -0.9187 0.3908
vn -0.6766 0.3208 0.6628
vn 0.0123 -0.2858 0.9582
vn -0.7641 0.5395 -0.3538
vn -0.8855 0.2884 -0.3642
vn -0.1410 -0.2545 0.9567
vn 0.7806 -0.1886 -0.5959
vn 0.7974 0.0633 -0.6001
vn -0.8446 -0.0526 -0.5329
vn -0.0405 -0.2255 0.9734
vn 0.8155 0.2876 -0.5022
vn -0.7955 -0.0863 -0.5998
vn 0.0498 -0.0441 0.9978
vn 0.8655 0.1521 -0.4772
vn -0.8489 -0.0256 -0.5279
vn -0.0311 0.0475 0.9984
vn 0.8818 -0.0055 -0.4716
vn 0.8718 -0.4892 0.0249
vn -0.1582 0.7657 0.6235
vn -0.1569 0.7457 0.6475
vn 0.8560 -0.4764 -0.2008
vn -0.6133 -0.1340 -0.7784
vn -0.7971 -0.1392 -0.5876
vn 0.2042 0.7755 0.5975
vn 0.7195 -0.6199 -0.3133
vn -0.8852 -0.2655 -0.3820
vn 0.3099 0.6702 0.6744
vn 0.7461 -0.6589 -0.0959
vn -0.9069 0.1221 -0.4033
vn 0.1320 0.5528 0.8228
vn 0.6408 -0.7354 -0.2203
vn -0.7404 0.2264 -0.6329
vn -0.1661 -0.5943 0.7869
vn -0.1192 -0.8615 0.4935
vn 0.2602 -0.9157 0.3062
vn 0.4357 -0.6863 0.5823
vn 0.6163 -0.5464 -0.5671
vn 0.8486 -0.2348 -0.4741
vt 0.027290 0.646367
vt 0.248471 0.678197
vt 0.203545 0.754537
vt 0.095864 0.766908
vt 0.287105 0.559505
vt 0.012422 0.530397
vt 0.049056 0.399967
vt 0.285291 0.399967
vt 0.166294 0.605980
vt 0.605289 0.189308
vt 0.984903 0.693770
vt 0.682953 0.979519
vt 0.063435 0.021116
vt 0.044979 0.038634
vt 0.622423 0.626329
vt 0.990858 0.626329
vt 0.990858 0.994764
vt 0.622423 0.994764
vt 0.023898 0.000000
vt 0.028375 0.000232
vt 0.020081 0.265415
vt 0.004572 0.264962
vt 0.032353 0.000273
vt 0.035272 0.265414
vt 0.036330 0.000145
vt 0.050566 0.265135
vt 0.018776 0.519149
vt 0.000386 0.519087
vt 0.036107 0.519238
vt 0.053984 0.519273
vt 0.019226 0.758853
vt 0.003000 0.758827
vt 0.035144 0.758840
vt 0.051040 0.758829
vt 0.018342 1.000000
vt 0.000000 0.999855
vt 0.036020 1.000000
vt 0.054361 0.999836
vt 0.055011 0.016493
vt 0.054627 0.012832
vt 0.132582 0.000268
vt 0.133285 0.014260
vt 0.054361 0.024080
vt 0.054941 0.020175
vt 0.132972 0.028062
vt 0.131343 0.041387
vt 0.209918 0.000000
vt 0.209682 0.017058
vt 0.208737 0.032508
vt 0.207353 0.050476
vt 0.294687 0.000939
vt 0.294695 0.018613
vt 0.294427 0.038144
vt 0.294140 0.056205
vt 0.379872 0.000000
vt 0.379847 0.019612
vt 0.379868 0.037026
vt 0.380066 0.054415
vt 0.871141 0.000000
vt 0.871142 0.596766
vt 0.000000 0.466386
vt 0.000000 0.000000
vt 0.871142 1.000000
vt 0.000000 1.000000
s 1
usemtl flower_2
f 6/1/1 1/2/2 7/3/3 8/4/3
f 2/5/4 3/6/5 5/7/6 4/8/6
f 6/1/1 3/6/5 2/5/4 1/2/2
f 14/1/7 9/2/8 15/3/9 16/4/9
f 10/5/10 11/6/11 13/7/12 12/8/12
f 14/1/7 11/6/11 10/5/10 9/2/8
f 22/1/13 17/2/14 23/3/15 24/4/15
f 18/5/16 19/6/17 21/7/18 20/8/18
f 22/1/13 19/6/17 18/5/16 17/2/14
f 30/1/19 25/2/20 31/3/21 32/4/21
f 26/5/22 27/6/23 29/7/24 28/8/24
f 30/1/19 27/6/23 26/5/22 25/2/20
f 38/1/25 33/2/26 39/3/27 40/4/27
f 34/5/28 35/6/29 37/7/30 36/8/30
f 38/1/25 35/6/29 34/5/28 33/2/26
f 54/15/40 55/16/40 57/17/40 56/18/40
f 58/15/41 59/16/41 61/17/41 60/18/41
usemtl Material.002
f 44/9/31 45/10/32 43/11/33 42/12/33
f 41/13/34 45/10/32 44/9/31
f 48/9/35 44/10/31 47/11/36 46/12/36
f 41/14/34 44/10/31 48/9/35
f 51/9/37 48/10/35 50/11/38 49/12/38
f 41/14/34 48/10/35 51/9/37
f 45/9/32 51/10/37 53/11/39 52/12/39
f 41/14/34 51/10/37 45/9/32
usemtl Paint_hand_brushed_gloss_finish
f 62/19/42 63/20/43 66/21/44 65/22/45
f 63/20/43 64/23/46 67/24/47 66/21/44
f 64/23/46 62/25/42 65/26/45 67/24/47
f 65/22/45 66/21/44 69/27/48 68/28/49
f 66/21/44 67/24/47 70/29/50 69/27/48
f 67/24/47 65/26/45 68/30/49 70/29/50
f 68/28/49 69/27/48 72/31/51 71/32/52
f 69/27/48 70/29/50 73/33/53 72/31/51
f 70/29/50 68/30/49 71/34/52 73/33/53
f 71/32/52 72/31/51 75/35/54 74/36/55
f 72/31/51 73/33/53 76/37/56 75/35/54
f 73/33/53 71/34/52 74/38/55 76/37/56
f 77/39/57 78/40/58 81/41/59 80/42/60
f 78/43/58 79/44/61 82/45/62 81/46/59
f 79/44/61 77/39/57 80/42/60 82/45/62
f 80/42/60 81/41/59 84/47/63 83/48/64
f 81/46/59 82/45/62 85/49/65 84/50/63
f 82/45/62 80/42/60 83/48/64 85/49/65
f 83/48/64 84/47/63 87/51/66 86/52/67
f 84/50/63 85/49/65 88/53/68 87/54/66
f 85/49/65 83/48/64 86/52/67 88/53/68
f 86/52/67 87/51/66 90/55/69 89/56/70
f 87/54/66 88/53/68 91/57/71 90/58/69
f 88/53/68 86/52/67 89/56/70 91/57/71
s 0
usemtl Leaf
f 93/59/72 97/60/72 96/61/72 92/62/72
f 96/61/73 97/60/73 95/63/73 94/64/73
f 99/59/74 103/60/74 102/61/74 98/62/74
f 102/61/75 103/60/75 101/63/75 100/64/75
f 105/59/76 109/60/76 108/61/76 104/62/76
f 108/61/77 109/60/77 107/63/77 106/64/77
o flower_4_C
v -0.959682 -0.003992 0.097591
v -0.957739 0.018079 0.085309
v -0.969373 -0.000086 0.068764
v -0.966988 0.036804 0.075713
v -0.975643 0.018224 0.059108
v -0.969517 -0.015917 0.086988
v -0.960975 -0.023030 0.104414
v -0.966521 -0.026065 0.104946
v -0.949335 -0.002468 0.095151
v -0.942870 0.022710 0.090802
v -0.957196 0.014183 0.073211
v -0.944584 0.045348 0.089008
v -0.959622 0.035750 0.071879
v -0.959979 -0.006802 0.084619
v -0.959316 -0.024179 0.099510
v -0.965298 -0.026291 0.099584
v -0.950977 -0.042050 0.094785
v -0.934663 -0.061000 0.090724
v -0.933790 -0.054262 0.117047
v -0.927919 -0.082823 0.093284
v -0.925341 -0.074147 0.118062
v -0.951905 -0.038774 0.113218
v -0.961956 -0.025990 0.100459
v -0.966454 -0.026369 0.104916
v -0.942567 -0.038089 0.089400
v -0.928765 -0.056164 0.076079
v -0.926174 -0.059046 0.100003
v -0.922436 -0.076182 0.067258
v -0.920902 -0.078496 0.091834
v -0.942041 -0.041568 0.104585
v -0.957550 -0.024790 0.103135
v -0.961721 -0.026234 0.107692
v -0.953720 -0.006021 0.109834
v -0.945947 0.018006 0.111846
v -0.963659 0.016286 0.091293
v -0.949648 0.040149 0.116770
v -0.964661 0.037528 0.095239
v -0.967417 -0.006851 0.097064
v -0.960313 -0.024564 0.105002
v -0.966473 -0.026084 0.105043
v -0.943594 -0.005519 0.106308
v -0.930052 0.015222 0.115312
v -0.947444 0.022133 0.099914
v -0.924884 0.034154 0.126865
v -0.943249 0.040109 0.111407
v -0.955734 -0.000358 0.098003
v -0.959415 -0.022860 0.100065
v -0.965737 -0.023304 0.100356
v -0.957278 -0.035563 0.084404
v -0.947851 -0.051152 0.066801
v -0.943199 -0.061906 0.091332
v -0.947947 -0.070953 0.055132
v -0.941188 -0.079635 0.079107
v -0.955924 -0.043890 0.101143
v -0.962415 -0.024279 0.100433
v -0.966505 -0.026315 0.104835
v -0.948436 -0.031008 0.080334
v -0.941742 -0.039843 0.056423
v -0.938557 -0.056953 0.073289
v -0.942439 -0.051337 0.036776
v -0.940040 -0.068181 0.054727
v -0.947979 -0.042913 0.090387
v -0.957682 -0.025871 0.102200
v -0.961778 -0.028859 0.106013
v -0.947859 -0.016163 0.117069
v -0.932995 -0.000399 0.130196
v -0.951718 0.014255 0.117012
v -0.929410 0.014533 0.147296
v -0.945910 0.028520 0.132198
v -0.961976 -0.006317 0.109644
v -0.960115 -0.026240 0.104462
v -0.966426 -0.026166 0.105099
v -0.938325 -0.015753 0.112160
v -0.918521 -0.007911 0.127682
v -0.933962 0.010256 0.123333
v -0.907053 -0.001268 0.146201
v -0.923714 0.016396 0.141502
v -0.948836 -0.004278 0.111260
v -0.959069 -0.022152 0.101263
v -0.965190 -0.021366 0.102736
v -0.961974 -0.023021 0.081210
v -0.958965 -0.026468 0.056294
v -0.956194 -0.050452 0.068790
v -0.965892 -0.034761 0.036009
v -0.960523 -0.057245 0.048717
v -0.962114 -0.039775 0.089615
v -0.962329 -0.022846 0.101472
v -0.966541 -0.026214 0.104812
v -0.952454 -0.018886 0.078420
v -0.950400 -0.012759 0.052869
v -0.951471 -0.036760 0.056061
v -0.955892 -0.009721 0.030978
v -0.957555 -0.034004 0.035369
v -0.954984 -0.034213 0.079713
v -0.958199 -0.026118 0.100886
v -0.962747 -0.029870 0.103228
v -0.944910 -0.029554 0.115826
v -0.925094 -0.028309 0.131559
v -0.939277 -0.005204 0.133589
v -0.915978 -0.027758 0.152651
v -0.928383 -0.004481 0.152260
v -0.955803 -0.014571 0.118694
v -0.960475 -0.027253 0.103054
v -0.966404 -0.026274 0.105087
v -0.936055 -0.028263 0.109899
v -0.913808 -0.035595 0.121980
v -0.923214 -0.015754 0.132238
v -0.899643 -0.043931 0.137743
v -0.910386 -0.024017 0.147729
v -0.942592 -0.016681 0.118030
v -0.958444 -0.022395 0.102531
v -0.963918 -0.021407 0.105581
v -0.962812 -0.010438 0.086736
v -0.962675 0.001214 0.064243
v -0.966542 -0.025395 0.060231
v -0.973148 0.008396 0.045086
v -0.974074 -0.017717 0.041465
v -0.967506 -0.028402 0.084163
v -0.961740 -0.022378 0.103075
v -0.966547 -0.026114 0.104858
v -0.952695 -0.007537 0.084575
v -0.950586 0.012099 0.067122
v -0.958722 -0.008151 0.056581
v -0.956343 0.028709 0.052645
v -0.965048 0.007644 0.043043
v -0.959694 -0.019641 0.077683
v -0.958855 -0.025415 0.099821
v -0.964164 -0.028782 0.100673
v -0.946287 -0.039771 0.106701
v -0.926033 -0.052338 0.115282
v -0.932302 -0.032760 0.133072
v -0.915796 -0.066442 0.130266
v -0.920485 -0.045647 0.145804
v -0.951859 -0.027656 0.119874
v -0.961220 -0.027118 0.101453
v -0.966416 -0.026354 0.105012
v -0.937872 -0.037048 0.100611
v -0.918171 -0.054553 0.100940
v -0.920356 -0.043422 0.122357
v -0.906207 -0.073373 0.105547
v -0.909657 -0.061748 0.127103
v -0.939998 -0.031620 0.115068
v -0.957839 -0.023472 0.103260
v -0.962532 -0.023408 0.107529
v -0.948593 -0.021111 0.084096
v -0.960196 -0.023703 0.082184
v -0.943695 -0.031358 0.089298
v -0.952774 -0.039231 0.090068
v -0.938779 -0.030799 0.100768
v -0.945324 -0.038383 0.107449
v -0.938760 -0.019993 0.107036
v -0.945295 -0.022009 0.116947
v -0.943658 -0.009747 0.101833
v -0.952717 -0.006482 0.109063
v -0.948574 -0.010306 0.090363
v -0.960167 -0.007329 0.091682
v -0.938368 -0.019203 0.093225
v -0.971214 -0.029125 0.107835
v -0.996187 -0.056412 0.035028
v -1.009875 -0.010621 0.034451
v -0.962035 -0.046851 0.069009
v -0.973263 -0.003001 0.074016
v -1.007864 0.032371 0.066381
v -0.995935 0.053743 0.107435
v -0.960225 0.013094 0.113692
v -0.971616 0.041478 0.153588
v -0.949863 0.010441 0.182708
v -0.940266 -0.019011 0.137654
v -0.934817 -0.040994 0.182675
v -0.931871 -0.083935 0.161893
v -0.939470 -0.057357 0.114584
v -0.945560 -0.107259 0.115628
v -0.965474 -0.106042 0.072194
v -0.969280 -0.028768 0.107217
v -0.970435 -0.028347 0.107332
v -0.970010 -0.028689 0.106225
v -0.987362 -0.085585 0.117779
v -0.991424 -0.084577 0.118242
v -0.989914 -0.085534 0.114430
v -0.994136 -0.148966 0.127348
v -0.999692 -0.148737 0.128105
v -0.997585 -0.149269 0.122932
v -0.990577 -0.213923 0.129612
v -0.995499 -0.214434 0.130268
v -0.993660 -0.213640 0.125696
v -0.983223 -0.276394 0.109424
v -0.988765 -0.277237 0.110105
v -0.986777 -0.275401 0.105149
v -1.060627 -0.125031 0.085864
v -1.060891 -0.124323 0.086840
v -1.061334 -0.125473 0.086774
v -1.045514 -0.132298 0.093018
v -1.045400 -0.128919 0.095395
v -1.046982 -0.132437 0.096879
v -1.024609 -0.137352 0.097011
v -1.025292 -0.131930 0.098307
v -1.026618 -0.135901 0.102050
v -1.006105 -0.131683 0.108532
v -1.008393 -0.127319 0.108940
v -1.009088 -0.130805 0.112376
v -0.991572 -0.122446 0.118735
v -0.993731 -0.117362 0.119806
v -0.995172 -0.121790 0.123036
v -0.968950 -0.047399 0.122214
v -0.998944 -0.043284 0.169991
v -1.015607 -0.091629 0.104413
v -1.045602 -0.087514 0.152190
v -0.986415 -0.073521 0.116303
v -1.023270 -0.074179 0.161327
v -1.023306 -0.133714 0.126601
v -1.035248 -0.134060 0.072177
v -0.972067 -0.096726 0.108580
v -0.984008 -0.097072 0.054157
v -0.995211 -0.122386 0.117976
v -1.001231 -0.116838 0.061243
v -1.069923 -0.151120 0.109166
v -1.127094 -0.124790 0.107148
v -1.047782 -0.088285 0.076336
v -1.104953 -0.061955 0.074317
v -1.060200 -0.125437 0.086514
v -1.114375 -0.090260 0.081543
vn 0.8260 -0.3640 -0.4303
vn 0.8375 -0.3566 -0.4139
vn 0.7434 -0.4071 -0.5306
vn 0.8703 -0.1092 -0.4803
vn 0.8768 -0.1483 -0.4574
vn 0.8246 0.0528 -0.5632
vn 0.6905 -0.4275 -0.5835
vn 0.7117 -0.4068 -0.5727
vn 0.5908 -0.5119 -0.6237
vn 0.7779 -0.1214 -0.6166
vn 0.7812 -0.1765 -0.5989
vn 0.7569 0.0247 -0.6531
vn 0.7215 0.6910 -0.0442
vn 0.7179 0.6931 -0.0651
vn 0.7373 0.6695 0.0901
vn 0.8530 0.4959 -0.1626
vn 0.8292 0.5350 -0.1621
vn 0.9317 0.3256 -0.1611
vn 0.7406 0.6511 0.1662
vn 0.7504 0.6467 0.1366
vn 0.6895 0.6627 0.2924
vn 0.8985 0.4387 -0.0136
vn 0.8725 0.4886 -0.0001
vn 0.9524 0.3009 -0.0488
vn 0.6444 -0.1941 -0.7396
vn 0.6587 -0.2006 -0.7252
vn 0.5461 -0.1503 -0.8241
vn 0.7610 0.0236 -0.6483
vn 0.7568 -0.0217 -0.6533
vn 0.7616 0.2081 -0.6137
vn 0.4861 -0.1231 -0.8652
vn 0.5133 -0.1180 -0.8501
vn 0.3629 -0.1437 -0.9207
vn 0.6604 0.1154 -0.7420
vn 0.6479 0.0615 -0.7593
vn 0.6827 0.2545 -0.6850
vn 0.8936 0.4116 0.1790
vn 0.8894 0.4266 0.1644
vn 0.9110 0.3113 0.2705
vn 0.9509 0.3046 -0.0547
vn 0.9402 0.3395 -0.0270
vn 0.9736 0.1558 -0.1666
vn 0.9135 0.2509 0.3203
vn 0.9195 0.2633 0.2919
vn 0.8770 0.1947 0.4394
vn 0.9866 0.1619 0.0217
vn 0.9780 0.1978 0.0663
vn 0.9933 0.0654 -0.0956
vn 0.5032 0.1602 -0.8492
vn 0.5157 0.1435 -0.8446
vn 0.4175 0.2651 -0.8692
vn 0.6866 0.2497 -0.6828
vn 0.6684 0.2185 -0.7109
vn 0.7459 0.3714 -0.5529
vn 0.3660 0.3234 -0.8726
vn 0.3944 0.3126 -0.8641
vn 0.2390 0.3661 -0.8993
vn 0.6127 0.3979 -0.6828
vn 0.5832 0.3692 -0.7236
vn 0.6802 0.4667 -0.5653
vn 0.9865 0.0262 0.1614
vn 0.9861 0.0474 0.1591
vn 0.9785 -0.1098 0.1745
vn 0.9926 0.0718 -0.0979
vn 0.9950 0.0843 -0.0540
vn 0.9612 0.0191 -0.2752
vn 0.9658 -0.1865 0.1801
vn 0.9734 -0.1613 0.1629
vn 0.9219 -0.2939 0.2524
vn 0.9880 -0.0914 -0.1247
vn 0.9938 -0.0886 -0.0671
vn 0.9570 -0.0971 -0.2734
vn 0.4701 0.5290 -0.7065
vn 0.4772 0.5108 -0.7151
vn 0.4194 0.6398 -0.6440
vn 0.6828 0.4605 -0.5672
vn 0.6541 0.4571 -0.6027
vn 0.7850 0.4645 -0.4099
vn 0.3879 0.6978 -0.6022
vn 0.4122 0.6785 -0.6081
vn 0.2785 0.7731 -0.5699
vn 0.6577 0.5907 -0.4674
vn 0.6182 0.5990 -0.5090
vn 0.7507 0.5594 -0.3513
vn 0.9558 -0.2804 -0.0886
vn 0.9617 -0.2626 -0.0786
vn 0.9074 -0.3918 -0.1519
vn 0.9581 -0.0909 -0.2715
vn 0.9671 -0.1081 -0.2301
vn 0.9003 -0.0189 -0.4348
vn 0.8724 -0.4515 -0.1871
vn 0.8862 -0.4232 -0.1885
vn 0.8028 -0.5689 -0.1788
vn 0.9021 -0.1998 -0.3825
vn 0.9123 -0.2334 -0.3364
vn 0.8609 -0.1086 -0.4970
vn 0.5609 0.7355 -0.3801
vn 0.5615 0.7251 -0.3987
vn 0.5509 0.7941 -0.2568
vn 0.7513 0.5550 -0.3570
vn 0.7207 0.5796 -0.3805
vn 0.8602 0.4427 -0.2534
vn 0.5413 0.8206 -0.1836
vn 0.5580 0.8042 -0.2047
vn 0.4625 0.8820 -0.0903
vn 0.7738 0.6013 -0.1991
vn 0.7360 0.6408 -0.2183
vn 0.8604 0.4883 -0.1458
vn 0.3498 0.1280 -0.9280
vn 0.8912 0.2264 -0.3930
vn 0.6277 -0.4533 -0.6329
vn 0.1439 0.0832 -0.9861
vn 0.4752 -0.6100 -0.6341
vn 0.9066 -0.4216 0.0179
vn 0.8078 -0.5721 0.1418
vn 0.9077 0.1915 0.3735
vn 0.8091 0.1589 0.5658
vn 0.6298 0.7728 0.0783
vn 0.4778 0.8521 0.2139
vn 0.3509 0.7411 -0.5724
vn 0.1452 0.8142 -0.5621
vn 0.8790 0.2552 -0.4028
vn 0.6760 0.2226 -0.7024
vn 0.8728 0.2649 -0.4099
vn 0.8842 0.2735 -0.3787
vn 0.6894 0.5518 -0.4693
vn 0.8768 0.2802 -0.3908
vn 0.8699 0.4804 -0.1121
vn 0.8912 0.2622 -0.3702
vn 0.9914 0.0944 -0.0904
vn 0.8956 0.2337 -0.3785
vn 0.8935 -0.0951 -0.4389
vn 0.8896 -0.2075 0.4068
vn -0.7292 0.3824 0.5674
vn -0.7770 0.2879 0.5597
vn 0.8997 -0.1176 0.4204
vn -0.1336 -0.0957 -0.9864
vn -0.1942 -0.0907 -0.9768
vn -0.7931 0.0809 0.6037
vn 0.9073 0.0152 0.4202
vn -0.1893 -0.0798 -0.9787
vn -0.7401 -0.1540 0.6546
vn 0.8889 0.0119 0.4579
vn -0.1756 0.1218 -0.9769
vn -0.7716 -0.2680 0.5769
vn 0.9296 -0.0091 0.3685
vn -0.1615 0.2948 -0.9418
vn 0.2557 -0.3538 -0.8997
vn 0.1642 0.9617 0.2197
vn 0.1396 0.9803 0.1393
vn 0.0947 -0.5429 -0.8345
vn -0.6474 -0.5184 0.5587
vn -0.4767 -0.4588 0.7498
vn 0.0898 0.9454 -0.3134
vn 0.2824 -0.6680 -0.6885
vn -0.3341 -0.4512 0.8276
vn -0.1645 0.9085 -0.3841
vn 0.6080 -0.6352 -0.4762
vn -0.3947 -0.3675 0.8421
vn -0.2947 0.8659 -0.4042
vn 0.6893 -0.4599 -0.5598
vn -0.5003 -0.2148 0.8388
vn 0.6419 -0.5943 0.4845
vn 0.3962 -0.8615 0.3175
vn 0.3877 -0.9157 -0.1055
vn 0.7122 -0.6863 -0.1472
vn -0.2517 -0.5464 -0.7988
vn -0.0689 -0.2348 -0.9696
vt 0.409933 0.127438
vt 0.277456 0.136924
vt 0.305316 -0.000640
vt 0.347846 -0.002894
vt 0.264069 0.311866
vt 0.453438 0.288869
vt 0.466576 0.452007
vt 0.278564 0.461510
vt 0.802344 0.160946
vt 0.687762 0.157017
vt 0.720226 0.000364
vt 0.756737 0.002921
vt 0.667272 0.329394
vt 0.826018 0.318657
vt 0.827533 0.461863
vt 0.667272 0.479385
vt 0.218248 0.160946
vt 0.103666 0.157017
vt 0.136129 0.000364
vt 0.172640 0.002921
vt 0.083175 0.329394
vt 0.241921 0.318657
vt 0.243436 0.461863
vt 0.083175 0.479385
vt 0.636346 0.500174
vt 0.616177 0.613035
vt 0.465725 0.558643
vt 0.473444 0.522865
vt 0.783893 0.657810
vt 0.795821 0.499150
vt 0.937789 0.517998
vt 0.932362 0.679122
vt 0.618076 0.160946
vt 0.503494 0.157017
vt 0.535957 0.000364
vt 0.572468 0.002921
vt 0.483004 0.329394
vt 0.641749 0.318657
vt 0.643264 0.461863
vt 0.483004 0.479385
vt 0.365864 0.679744
vt 0.387073 0.567074
vt 0.537017 0.622851
vt 0.528969 0.658556
vt 0.219777 0.520755
vt 0.206387 0.679299
vt 0.064598 0.659143
vt 0.071510 0.498075
vt 0.212325 0.746378
vt 0.203714 0.878915
vt 0.071215 0.832614
vt 0.074763 0.790172
vt 0.375213 0.915959
vt 0.378172 0.725221
vt 0.541581 0.734381
vt 0.525438 0.921940
vt 0.715538 0.856198
vt 0.791849 0.837296
vt 0.767836 0.916086
vt 0.630254 0.877323
vt 0.749148 0.998985
vt 0.850516 0.898599
vt 0.908389 0.956897
vt 0.868613 0.818281
vt 0.952118 0.797597
vt 0.815119 0.755697
vt 0.839089 0.677126
vt 0.733836 0.778824
vt 0.678615 0.714232
vt 0.166294 0.605980
vt 0.682953 0.979519
vt 0.984903 0.693770
vt 0.605289 0.189308
vt 0.063435 0.021116
vt 0.025333 0.000003
vt 0.030046 0.000230
vt 0.024902 0.231321
vt 0.008582 0.230783
vt 0.034772 0.000228
vt 0.040545 0.231267
vt 0.039483 -0.000000
vt 0.056334 0.230676
vt 0.022739 0.474500
vt 0.000594 0.474438
vt 0.043896 0.474399
vt 0.064692 0.474148
vt 0.022860 0.732627
vt 0.002951 0.732655
vt 0.043440 0.732648
vt 0.063582 0.732660
vt 0.022840 1.000000
vt -0.000000 0.999860
vt 0.043768 0.999987
vt 0.064691 0.999917
vt 0.065612 0.027188
vt 0.064692 0.022168
vt 0.138339 0.005240
vt 0.140146 0.022235
vt 0.065060 0.037109
vt 0.065758 0.032062
vt 0.140174 0.038333
vt 0.138455 0.054518
vt 0.224468 -0.000000
vt 0.224662 0.021552
vt 0.224452 0.042607
vt 0.224056 0.064993
vt 0.305868 0.004605
vt 0.305809 0.023406
vt 0.305791 0.041773
vt 0.305704 0.060629
vt 0.380068 0.000279
vt 0.380846 0.021920
vt 0.380716 0.043392
vt 0.379785 0.064993
vt 0.871141 0.000000
vt 0.871142 0.596766
vt 0.000000 0.466386
vt 0.000000 0.000000
vt 0.871142 1.000000
vt 0.000000 1.000000
s 1
usemtl flowe_3
f 115/65/78 110/66/79 116/67/80 117/68/80
f 111/69/81 112/70/82 114/71/83 113/72/83
f 115/65/78 112/70/82 111/69/81 110/66/79
f 123/73/84 118/74/85 124/75/86 125/76/86
f 119/77/87 120/78/88 122/79/89 121/80/89
f 123/73/84 120/78/88 119/77/87 118/74/85
f 131/65/90 126/66/91 132/67/92 133/68/92
f 127/69/93 128/70/94 130/71/95 129/72/95
f 131/65/90 128/70/94 127/69/93 126/66/91
f 139/81/96 134/82/97 140/83/98 141/84/98
f 135/85/99 136/86/100 138/87/101 137/88/101
f 139/81/96 136/86/100 135/85/99 134/82/97
f 147/65/102 142/66/103 148/67/104 149/68/104
f 143/69/105 144/70/106 146/71/107 145/72/107
f 147/65/102 144/70/106 143/69/105 142/66/103
f 155/89/108 150/90/109 156/91/110 157/92/110
f 151/93/111 152/94/112 154/95/113 153/96/113
f 155/89/108 152/94/112 151/93/111 150/90/109
f 163/65/114 158/66/115 164/67/116 165/68/116
f 159/69/117 160/70/118 162/71/119 161/72/119
f 163/65/114 160/70/118 159/69/117 158/66/115
f 171/81/120 166/82/121 172/83/122 173/84/122
f 167/85/123 168/86/124 170/87/125 169/88/125
f 171/81/120 168/86/124 167/85/123 166/82/121
f 179/65/126 174/66/127 180/67/128 181/68/128
f 175/69/129 176/70/130 178/71/131 177/72/131
f 179/65/126 176/70/130 175/69/129 174/66/127
f 187/81/132 182/82/133 188/83/134 189/84/134
f 183/85/135 184/86/136 186/87/137 185/88/137
f 187/81/132 184/86/136 183/85/135 182/82/133
f 195/65/138 190/66/139 196/67/140 197/68/140
f 191/69/141 192/70/142 194/71/143 193/72/143
f 195/65/138 192/70/142 191/69/141 190/66/139
f 203/97/144 198/98/145 204/99/146 205/100/146
f 199/101/147 200/102/148 202/103/149 201/104/149
f 203/97/144 200/102/148 199/101/147 198/98/145
f 211/65/150 206/66/151 212/67/152 213/68/152
f 207/69/153 208/70/154 210/71/155 209/72/155
f 211/65/150 208/70/154 207/69/153 206/66/151
f 219/105/156 214/106/157 220/107/158 221/108/158
f 215/109/159 216/110/160 218/111/161 217/112/161
f 219/105/156 216/110/160 215/109/159 214/106/157
f 227/65/162 222/66/163 228/67/164 229/68/164
f 223/69/165 224/70/166 226/71/167 225/72/167
f 227/65/162 224/70/166 223/69/165 222/66/163
f 235/81/168 230/82/169 236/83/170 237/84/170
f 231/85/171 232/86/172 234/87/173 233/88/173
f 235/81/168 232/86/172 231/85/171 230/82/169
f 243/113/174 238/114/175 244/115/176 245/116/176
f 239/117/177 240/118/178 242/119/179 241/120/179
f 243/113/174 240/118/178 239/117/177 238/114/175
f 251/81/180 246/82/181 252/83/182 253/84/182
f 247/85/183 248/86/184 250/87/185 249/88/185
f 251/81/180 248/86/184 247/85/183 246/82/181
f 254/121/186 266/122/187 256/123/188
f 255/124/189 254/121/186 256/123/188 257/125/190
f 256/123/188 266/122/187 258/126/191
f 257/125/190 256/123/188 258/126/191 259/127/192
f 259/127/192 258/126/191 260/128/193 261/129/194
f 258/126/191 266/122/187 260/128/193
f 260/128/193 266/122/187 262/130/195
f 261/129/194 260/128/193 262/130/195 263/131/196
f 263/131/196 262/130/195 264/132/197 265/133/198
f 262/130/195 266/122/187 264/132/197
f 264/132/197 266/122/187 254/121/186
f 265/133/198 264/132/197 254/121/186 255/124/189
usemtl Material.002
f 270/134/199 268/135/200 269/136/200 271/137/201
f 267/138/202 270/134/199 271/137/201
f 271/134/201 272/135/203 273/136/203 274/137/204
f 267/138/202 271/134/201 274/137/204
f 274/134/204 275/135/205 276/136/205 277/137/206
f 267/138/202 274/134/204 277/137/206
f 277/134/206 278/135/207 279/136/207 280/137/208
f 267/138/202 277/134/206 280/137/208
f 280/134/208 281/135/209 282/136/209 270/137/199
f 267/138/202 280/134/208 270/137/199
usemtl Paint_hand_brushed_gloss_finish
f 283/139/210 284/140/211 287/141/212 286/142/213
f 284/140/211 285/143/214 288/144/215 287/141/212
f 285/143/214 283/145/210 286/146/213 288/144/215
f 286/142/213 287/141/212 290/147/216 289/148/217
f 287/141/212 288/144/215 291/149/218 290/147/216
f 288/144/215 286/146/213 289/150/217 291/149/218
f 289/148/217 290/147/216 293/151/219 292/152/220
f 290/147/216 291/149/218 294/153/221 293/151/219
f 291/149/218 289/150/217 292/154/220 294/153/221
f 292/152/220 293/151/219 296/155/222 295/156/223
f 293/151/219 294/153/221 297/157/224 296/155/222
f 294/153/221 292/154/220 295/158/223 297/157/224
f 298/159/225 299/160/226 302/161/227 301/162/228
f 299/163/226 300/164/229 303/165/230 302/166/227
f 300/164/229 298/159/225 301/162/228 303/165/230
f 301/162/228 302/161/227 305/167/231 304/168/232
f 302/166/227 303/165/230 306/169/233 305/170/231
f 303/165/230 301/162/228 304/168/232 306/169/233
f 304/168/232 305/167/231 308/171/234 307/172/235
f 305/170/231 306/169/233 309/173/236 308/174/234
f 306/169/233 304/168/232 307/172/235 309/173/236
f 307/172/235 308/171/234 311/175/237 310/176/238
f 308/174/234 309/173/236 312/177/239 311/178/237
f 309/173/236 307/172/235 310/176/238 312/177/239
s 0
usemtl Leaf
f 314/179/240 318/180/240 317/181/240 313/182/240
f 317/181/241 318/180/241 316/183/241 315/184/241
f 320/179/242 324/180/242 323/181/242 319/182/242
f 323/181/243 324/180/243 322/183/243 321/184/243
f 326/179/244 330/180/244 329/181/244 325/182/244
f 329/181/245 330/180/245 328/183/245 327/184/245
o flower_2_C
v -0.965835 -0.001838 -0.272343
v -0.967891 0.023729 -0.271799
v -0.943990 0.022239 -0.306111
v -0.976766 0.048242 -0.285789
v -0.957048 0.045429 -0.310880
v -0.928920 -0.054640 -0.313853
v -0.946263 -0.077718 -0.283564
v -0.931372 -0.080765 -0.327523
v -0.943976 -0.096655 -0.302726
v -0.970151 -0.030728 -0.260464
v -0.983569 -0.024097 -0.239627
v -0.978626 0.014910 -0.253938
v -1.007857 -0.011118 -0.228809
v -1.001689 0.018177 -0.240212
v -0.947701 -0.004564 -0.298398
v -0.941053 -0.035438 -0.302206
v -0.933923 0.004744 -0.317936
v -0.923874 -0.035336 -0.324526
v -0.929225 0.004952 -0.347147
v -0.921175 -0.025947 -0.349737
v -0.954930 -0.051376 -0.278804
v -0.964250 -0.025810 -0.288212
v -0.959779 -0.072567 -0.265178
v -0.980295 -0.046487 -0.239689
v -0.980247 -0.090754 -0.253968
v -0.994021 -0.069229 -0.234648
v -0.977714 -0.020486 -0.264895
v -0.945350 -0.030709 -0.310364
v -0.931117 -0.014374 -0.233103
v -0.898753 -0.024597 -0.278572
v -0.961116 0.002140 -0.293570
v -0.961947 -0.053335 -0.281689
v -0.914520 0.008252 -0.261778
v -0.915350 -0.047223 -0.249897
v -0.967101 -0.025505 -0.289864
v -0.938240 -0.034264 -0.345047
v -0.941721 -0.057819 -0.335175
v -0.944489 -0.013653 -0.309828
v -0.949454 -0.052304 -0.291353
v -0.974646 0.034395 -0.305710
v -0.961821 0.023781 -0.325388
v -0.967111 0.004182 -0.278606
v -1.005625 -0.016699 -0.242332
v -1.003598 0.006226 -0.253941
v -0.972340 -0.033619 -0.259941
v -0.970140 -0.086878 -0.279784
v -0.984741 -0.075896 -0.261602
v -0.966121 -0.026453 -0.289402
v -0.967232 -0.025934 -0.289547
v -0.966438 -0.025967 -0.290492
v -0.988241 -0.082530 -0.306505
v -0.992300 -0.081356 -0.306456
v -0.990099 -0.081202 -0.310060
v -0.998591 -0.147488 -0.314833
v -1.004193 -0.147304 -0.314429
v -1.001745 -0.147488 -0.319484
v -0.991876 -0.211970 -0.303822
v -0.996821 -0.212579 -0.303482
v -0.994678 -0.212000 -0.307955
v -0.983297 -0.276414 -0.324729
v -0.988871 -0.277243 -0.324373
v -0.986597 -0.275374 -0.329191
v -1.054808 -0.125753 -0.313699
v -1.054058 -0.125921 -0.312733
v -1.054876 -0.126794 -0.313039
v -1.047014 -0.131000 -0.322507
v -1.044271 -0.130422 -0.320159
v -1.045782 -0.133741 -0.320423
v -1.033928 -0.132857 -0.340280
v -1.032370 -0.130026 -0.335798
v -1.033198 -0.135479 -0.335472
v -1.013452 -0.137526 -0.330766
v -1.014909 -0.134128 -0.327389
v -1.016216 -0.138929 -0.326833
v -0.998123 -0.140059 -0.319023
v -1.000372 -0.136344 -0.315414
v -1.001656 -0.141827 -0.314989
v -0.966196 -0.037262 -0.295271
v -0.996190 -0.033147 -0.247494
v -1.012853 -0.081491 -0.313073
v -1.042848 -0.077377 -0.265296
v -0.983661 -0.063384 -0.301182
v -1.020516 -0.064042 -0.256159
v -1.028795 -0.150183 -0.308992
v -1.040736 -0.150529 -0.363415
v -0.977555 -0.113195 -0.327013
v -0.989497 -0.113541 -0.381436
v -1.000700 -0.138855 -0.317617
v -1.006720 -0.133306 -0.374350
v -1.063554 -0.152333 -0.290484
v -1.120725 -0.126004 -0.292502
v -1.041413 -0.089498 -0.323315
v -1.098584 -0.063169 -0.325333
v -1.053831 -0.126651 -0.313136
v -1.108006 -0.091473 -0.318107
vn 0.7637 -0.0097 0.6455
vn 0.8683 -0.0263 0.4953
vn 0.8209 0.1072 0.5610
vn 0.7900 0.2848 0.5429
vn 0.7858 0.3017 0.5398
vn 0.7081 0.5154 0.4826
vn 0.8057 0.2613 0.5316
vn 0.7251 0.1687 0.6676
vn 0.8818 -0.0380 0.4701
vn 0.8856 -0.0516 0.4615
vn 0.9140 -0.2411 0.3263
vn 0.8939 0.1409 0.4255
vn 0.7063 0.1592 0.6897
vn 0.6929 0.1649 0.7019
vn 0.5088 0.2296 0.8297
vn 0.8989 0.1628 0.4067
vn 0.9052 0.1674 0.3907
vn 0.9600 0.2228 0.1698
vn 0.7617 -0.0393 0.6467
vn 0.7537 -0.0544 0.6549
vn 0.6336 -0.2369 0.7365
vn -0.0146 -0.9777 0.2094
vn -0.5704 0.1802 0.8014
vn 0.9808 -0.0470 0.1890
vn 0.5339 0.3078 0.7875
vn 0.8199 0.4891 0.2976
vn 0.7111 -0.2491 0.6575
vn 0.5530 0.3179 0.7702
vn 0.9859 -0.0591 0.1566
vn 0.7105 -0.2197 0.6685
vn 0.8085 0.5167 0.2817
vn 0.7519 -0.4449 0.4865
vn -0.8416 0.2318 0.4878
vn -0.8736 0.1806 0.4519
vn 0.8220 -0.3220 0.4697
vn 0.1218 0.2847 -0.9509
vn -0.0098 0.2327 -0.9725
vn -0.8921 0.0427 0.4499
vn 0.9104 -0.0188 0.4132
vn -0.1135 -0.0172 -0.9934
vn -0.7566 -0.1353 0.6397
vn 0.8442 0.0603 0.5327
vn -0.0963 0.0611 -0.9935
vn -0.8050 -0.2694 0.5287
vn 0.9076 -0.0146 0.4197
vn -0.1063 0.3027 -0.9471
vn -0.5358 0.4269 -0.7285
vn 0.6507 0.5517 0.5217
vn 0.6252 0.5865 0.5149
vn -0.7195 0.2242 -0.6573
vn -0.3308 -0.8540 0.4015
vn -0.0433 -0.9299 0.3654
vn 0.2180 0.9661 0.1385
vn -0.2390 0.0789 -0.9678
vn -0.1847 -0.9626 0.1981
vn -0.0099 0.9590 0.2834
vn 0.4825 -0.2092 -0.8505
vn -0.4518 -0.7738 0.4440
vn -0.1020 0.9487 0.2992
vn 0.5717 -0.2151 -0.7918
vn -0.5154 -0.7258 0.4555
vn 0.6419 -0.5943 0.4845
vn 0.3962 -0.8615 0.3175
vn 0.3877 -0.9157 -0.1055
vn 0.7122 -0.6863 -0.1472
vn -0.2517 -0.5464 -0.7988
vn -0.0689 -0.2348 -0.9696
vt 0.377371 0.237380
vt 0.099082 0.289214
vt 0.150187 0.026639
vt 0.039090 0.630087
vt 0.564706 0.519712
vt 0.588470 0.907721
vt 0.295089 0.968958
vt 0.598380 0.005490
vt 0.992479 0.005490
vt 0.992479 0.399590
vt 0.598380 0.399590
vt 0.166294 0.605980
vt 0.605289 0.189308
vt 0.984903 0.693770
vt 0.682953 0.979519
vt 0.063435 0.021116
vt 0.044979 0.038634
vt 0.025973 0.000002
vt 0.030446 0.000210
vt 0.024510 0.227198
vt 0.009432 0.226636
vt 0.035056 0.000210
vt 0.039705 0.227255
vt 0.039529 -0.000000
vt 0.054731 0.226735
vt 0.022340 0.466799
vt 0.000248 0.466788
vt 0.042393 0.466686
vt 0.062439 0.466403
vt 0.022596 0.727382
vt 0.002773 0.727420
vt 0.042602 0.727428
vt 0.062545 0.727447
vt 0.022527 0.999987
vt 0.000000 0.999864
vt 0.042472 1.000000
vt 0.062416 1.000000
vt 0.063656 0.030497
vt 0.062545 0.025988
vt 0.111964 0.009352
vt 0.114417 0.024288
vt 0.063469 0.039979
vt 0.063972 0.035119
vt 0.115166 0.037605
vt 0.114062 0.051017
vt 0.196845 -0.000000
vt 0.197682 0.019122
vt 0.197819 0.037442
vt 0.197729 0.060501
vt 0.276241 0.002733
vt 0.276348 0.021231
vt 0.276298 0.038440
vt 0.276339 0.056068
vt 0.344131 -0.000000
vt 0.344514 0.020227
vt 0.344187 0.039764
vt 0.343420 0.059212
vt 0.871141 0.000000
vt 0.871142 0.596766
vt 0.000000 0.466386
vt 0.000000 0.000000
vt 0.871142 1.000000
vt 0.000000 1.000000
s 1
usemtl flower_1_alternative
f 345/185/246 331/186/247 352/187/248
f 332/188/249 333/189/250 335/190/251 334/191/251
f 345/185/246 333/189/250 332/188/249 331/186/247
f 351/185/252 346/186/253 352/187/248
f 336/188/254 337/189/255 339/190/256 338/191/256
f 351/185/252 337/189/255 336/188/254 346/186/253
f 331/185/247 340/186/257 352/187/248
f 341/188/258 342/189/259 344/190/260 343/191/260
f 331/185/247 342/189/259 341/188/258 340/186/257
f 346/185/253 345/186/246 352/187/248
f 347/188/261 348/189/262 350/190/263 349/191/263
f 346/185/253 348/189/262 347/188/261 345/186/246
f 340/185/257 351/186/252 352/187/248
f 353/188/264 354/189/265 356/190/266 355/191/266
f 340/185/257 354/189/265 353/188/264 351/186/252
f 357/192/267 358/193/267 360/194/267 359/195/267
f 361/192/268 362/193/268 364/194/268 363/195/268
s 0
usemtl Material.002
f 368/196/269 369/197/269 367/198/269 366/199/269
f 365/200/270 369/197/270 368/196/270
f 372/196/271 368/197/271 371/198/271 370/199/271
f 365/201/272 368/197/272 372/196/272
f 375/196/273 372/197/273 374/198/273 373/199/273
f 365/201/274 372/197/274 375/196/274
f 369/196/275 375/197/275 377/198/275 376/199/275
f 365/201/276 375/197/276 369/196/276
s 1
usemtl Paint_hand_brushed_gloss_finish
f 378/202/277 379/203/278 382/204/279 381/205/280
f 379/203/278 380/206/281 383/207/282 382/204/279
f 380/206/281 378/208/277 381/209/280 383/207/282
f 381/205/280 382/204/279 385/210/283 384/211/284
f 382/204/279 383/207/282 386/212/285 385/210/283
f 383/207/282 381/209/280 384/213/284 386/212/285
f 384/211/284 385/210/283 388/214/286 387/215/287
f 385/210/283 386/212/285 389/216/288 388/214/286
f 386/212/285 384/213/284 387/217/287 389/216/288
f 387/215/287 388/214/286 391/218/289 390/219/290
f 388/214/286 389/216/288 392/220/291 391/218/289
f 389/216/288 387/217/287 390/221/290 392/220/291
f 393/222/292 394/223/293 397/224/294 396/225/295
f 394/226/293 395/227/296 398/228/297 397/229/294
f 395/227/296 393/222/292 396/225/295 398/228/297
f 396/225/295 397/224/294 400/230/298 399/231/299
f 397/229/294 398/228/297 401/232/300 400/233/298
f 398/228/297 396/225/295 399/231/299 401/232/300
f 399/231/299 400/230/298 403/234/301 402/235/302
f 400/233/298 401/232/300 404/236/303 403/237/301
f 401/232/300 399/231/299 402/235/302 404/236/303
f 402/235/302 403/234/301 406/238/304 405/239/305
f 403/237/301 404/236/303 407/240/306 406/241/304
f 404/236/303 402/235/302 405/239/305 407/240/306
s 0
usemtl Leaf
f 409/242/307 413/243/307 412/244/307 408/245/307
f 412/244/308 413/243/308 411/246/308 410/247/308
f 415/242/309 419/243/309 418/244/309 414/245/309
f 418/244/310 419/243/310 417/246/310 416/247/310
f 421/242/311 425/243/311 424/244/311 420/245/311
f 424/244/312 425/243/312 423/246/312 422/247/312
o flower_1_C
v -0.965835 -0.001838 -0.471267
v -0.967891 0.023729 -0.470723
v -0.943990 0.022239 -0.505035
v -0.976766 0.048242 -0.484713
v -0.957048 0.045429 -0.509804
v -0.928920 -0.054640 -0.512777
v -0.946263 -0.077718 -0.482488
v -0.931372 -0.080765 -0.526447
v -0.943976 -0.096655 -0.501650
v -0.970151 -0.030728 -0.459388
v -0.983569 -0.024097 -0.438551
v -0.978626 0.014910 -0.452862
v -1.007857 -0.011118 -0.427733
v -1.001689 0.018177 -0.439136
v -0.947701 -0.004564 -0.497322
v -0.941053 -0.035438 -0.501130
v -0.933923 0.004744 -0.516860
v -0.923874 -0.035336 -0.523450
v -0.929225 0.004952 -0.546071
v -0.921175 -0.025947 -0.548661
v -0.954930 -0.051376 -0.477728
v -0.964250 -0.025810 -0.487136
v -0.959779 -0.072567 -0.464102
v -0.980295 -0.046487 -0.438613
v -0.980247 -0.090754 -0.452892
v -0.994021 -0.069229 -0.433573
v -0.977714 -0.020486 -0.463819
v -0.945350 -0.030709 -0.509288
v -0.931117 -0.014374 -0.432027
v -0.898753 -0.024597 -0.477496
v -0.961116 0.002140 -0.492494
v -0.961947 -0.053335 -0.480613
v -0.914520 0.008252 -0.460702
v -0.915350 -0.047223 -0.448821
v -0.966276 -0.026825 -0.489587
v -0.937414 -0.035584 -0.544771
v -0.940896 -0.059138 -0.534899
v -0.943664 -0.014973 -0.509551
v -0.948628 -0.053624 -0.491076
v -0.973821 0.033076 -0.505433
v -0.960996 0.022461 -0.525112
v -0.966286 0.002862 -0.478329
v -1.004800 -0.018018 -0.442055
v -1.002773 0.004906 -0.453664
v -0.971514 -0.034939 -0.459664
v -0.969315 -0.088198 -0.479508
v -0.983916 -0.077215 -0.461325
v -0.966121 -0.026453 -0.488326
v -0.967232 -0.025934 -0.488471
v -0.966438 -0.025967 -0.489417
v -0.988241 -0.082530 -0.505429
v -0.992300 -0.081356 -0.505380
v -0.990099 -0.081202 -0.508984
v -0.998591 -0.147488 -0.513757
v -1.004193 -0.147304 -0.513353
v -1.001745 -0.147488 -0.518408
v -0.991876 -0.211970 -0.502746
v -0.996821 -0.212579 -0.502406
v -0.994678 -0.212000 -0.506879
v -0.983297 -0.276414 -0.523653
v -0.988871 -0.277243 -0.523297
v -0.986597 -0.275374 -0.528116
v -1.019650 -0.141722 -0.442882
v -1.020725 -0.142269 -0.442616
v -1.020584 -0.141057 -0.442425
v -1.023682 -0.137989 -0.458559
v -1.026490 -0.140651 -0.458941
v -1.027399 -0.136982 -0.458031
v -1.019859 -0.131912 -0.477092
v -1.022217 -0.136520 -0.478981
v -1.024527 -0.131623 -0.480005
v -1.002482 -0.134419 -0.490260
v -1.005193 -0.138670 -0.491280
v -1.006791 -0.134114 -0.493053
v -0.997039 -0.138234 -0.514979
v -1.000624 -0.142597 -0.515023
v -1.002489 -0.137398 -0.516197
v -0.957823 -0.024222 -0.490111
v -0.987818 -0.020108 -0.442334
v -1.004480 -0.068452 -0.507913
v -1.034475 -0.064337 -0.460136
v -0.975288 -0.050344 -0.496022
v -1.012143 -0.051002 -0.450999
v -1.028795 -0.150183 -0.507916
v -1.040736 -0.150529 -0.562339
v -0.977555 -0.113195 -0.525937
v -0.989497 -0.113541 -0.580360
v -1.000700 -0.138855 -0.516541
v -1.006720 -0.133306 -0.573274
v -1.029292 -0.167860 -0.419967
v -1.086463 -0.141531 -0.421986
v -1.007151 -0.105026 -0.452798
v -1.064322 -0.078696 -0.454817
v -1.019569 -0.142178 -0.442620
v -1.073744 -0.107001 -0.447591
vn 0.7637 -0.0097 0.6455
vn 0.8683 -0.0263 0.4953
vn 0.8209 0.1072 0.5610
vn 0.7900 0.2848 0.5429
vn 0.7858 0.3017 0.5398
vn 0.7081 0.5154 0.4826
vn 0.8057 0.2613 0.5316
vn 0.7251 0.1687 0.6676
vn 0.8818 -0.0380 0.4701
vn 0.8856 -0.0516 0.4615
vn 0.9140 -0.2411 0.3263
vn 0.8939 0.1409 0.4255
vn 0.7063 0.1592 0.6897
vn 0.6929 0.1649 0.7019
vn 0.5088 0.2296 0.8297
vn 0.8989 0.1628 0.4067
vn 0.9052 0.1674 0.3907
vn 0.9600 0.2228 0.1698
vn 0.7617 -0.0393 0.6467
vn 0.7537 -0.0544 0.6549
vn 0.6336 -0.2369 0.7365
vn -0.0146 -0.9777 0.2094
vn -0.5704 0.1802 0.8014
vn 0.8756 0.1465 0.4603
vn 0.8450 0.0754 0.5295
vn 0.9808 -0.0470 0.1890
vn 0.8422 0.1457 0.5191
vn 0.8265 0.2142 0.5206
vn 0.8199 0.4891 0.2976
vn 0.7986 0.1427 0.5847
vn 0.5530 0.3179 0.7702
vn 0.7105 -0.2197 0.6685
vn 0.7519 -0.4449 0.4865
vn -0.8416 0.2318 0.4878
vn -0.8736 0.1806 0.4519
vn 0.8220 -0.3220 0.4697
vn 0.1218 0.2847 -0.9509
vn -0.0098 0.2327 -0.9725
vn -0.8921 0.0427 0.4499
vn 0.9104 -0.0188 0.4132
vn -0.1135 -0.0172 -0.9934
vn -0.7566 -0.1353 0.6397
vn 0.8442 0.0603 0.5327
vn -0.0963 0.0611 -0.9935
vn -0.8050 -0.2694 0.5287
vn 0.9076 -0.0146 0.4197
vn -0.1063 0.3027 -0.9471
vn 0.9631 0.1740 -0.2052
vn -0.3326 -0.9428 0.0240
vn -0.3468 -0.9330 -0.0960
vn 0.9508 0.3040 0.0597
vn -0.5447 0.7217 0.4270
vn -0.7831 0.5789 0.2274
vn -0.2529 -0.9482 -0.1924
vn 0.6666 0.5839 0.4634
vn -0.7162 0.5763 -0.3937
vn 0.0259 -0.9823 0.1857
vn 0.8096 0.3695 0.4560
vn -0.5667 0.6734 -0.4747
vn -0.1645 -0.9769 0.1364
vn 0.9144 0.3802 0.1387
vn -0.7568 0.6120 -0.2297
vn 0.6419 -0.5943 0.4845
vn 0.3962 -0.8615 0.3175
vn 0.3877 -0.9157 -0.1055
vn 0.7122 -0.6863 -0.1472
vn -0.2517 -0.5464 -0.7988
vn -0.0689 -0.2348 -0.9696
vt 0.388896 0.249877
vt 0.024773 0.311080
vt 0.165068 0.000079
vt 0.011152 0.659837
vt 0.617392 0.546774
vt 0.557332 0.942603
vt 0.256316 0.999922
vt 0.584824 0.006699
vt 1.001113 0.006699
vt 1.001113 0.422988
vt 0.584824 0.422988
vt 0.166294 0.605980
vt 0.605289 0.189308
vt 0.984903 0.693770
vt 0.682953 0.979519
vt 0.063435 0.021116
vt 0.044979 0.038634
vt 0.036795 0.000244
vt 0.041100 0.000283
vt 0.043684 0.234630
vt 0.028261 0.234465
vt 0.045845 0.000102
vt 0.059927 0.234241
vt 0.032498 -0.000000
vt 0.012878 0.233701
vt 0.045167 0.499448
vt 0.021837 0.499371
vt 0.067027 0.499437
vt 0.000000 0.499228
vt 0.042649 0.752985
vt 0.025161 0.753165
vt 0.061058 0.752947
vt 0.007594 0.753257
vt 0.045455 1.000000
vt 0.023745 1.000000
vt 0.066152 0.999697
vt 0.003070 0.999741
vt 0.387235 0.035606
vt 0.387888 0.039587
vt 0.327428 0.054002
vt 0.325806 0.039502
vt 0.387835 0.027212
vt 0.387173 0.031575
vt 0.325812 0.026118
vt 0.327511 0.012300
vt 0.249553 0.060920
vt 0.249318 0.040444
vt 0.249491 0.021353
vt 0.250529 0.001875
vt 0.162663 0.059335
vt 0.162720 0.040437
vt 0.162822 0.021356
vt 0.163041 -0.000000
vt 0.067103 0.060920
vt 0.067027 0.038890
vt 0.067338 0.019583
vt 0.067474 0.000183
vt 0.871141 0.000000
vt 0.871142 0.596766
vt 0.000000 0.466386
vt 0.000000 0.000000
vt 0.871142 1.000000
vt 0.000000 1.000000
s 1
usemtl flower_1
f 440/248/313 426/249/314 447/250/315
f 427/251/316 428/252/317 430/253/318 429/254/318
f 440/248/313 428/252/317 427/251/316 426/249/314
f 446/248/319 441/249/320 447/250/315
f 431/251/321 432/252/322 434/253/323 433/254/323
f 446/248/319 432/252/322 431/251/321 441/249/320
f 426/248/314 435/249/324 447/250/315
f 436/251/325 437/252/326 439/253/327 438/254/327
f 426/248/314 437/252/326 436/251/325 435/249/324
f 441/248/320 440/249/313 447/250/315
f 442/251/328 443/252/329 445/253/330 444/254/330
f 441/248/320 443/252/329 442/251/328 440/249/313
f 435/248/324 446/249/319 447/250/315
f 448/251/331 449/252/332 451/253/333 450/254/333
f 435/248/324 449/252/332 448/251/331 446/249/319
f 452/255/334 453/256/334 455/257/334 454/258/334
f 456/255/335 457/256/335 459/257/335 458/258/335
usemtl Material.002
f 463/259/336 464/260/337 462/261/338 461/262/338
f 460/263/339 464/260/337 463/259/336
f 467/259/340 463/260/336 466/261/341 465/262/341
f 460/264/339 463/260/336 467/259/340
f 470/259/342 467/260/340 469/261/343 468/262/343
f 460/264/339 467/260/340 470/259/342
f 464/259/337 470/260/342 472/261/344 471/262/344
f 460/264/339 470/260/342 464/259/337
usemtl Paint_hand_brushed_gloss_finish
f 473/265/345 474/266/346 477/267/347 476/268/348
f 474/266/346 475/269/349 478/270/350 477/267/347
f 475/271/349 473/265/345 476/268/348 478/272/350
f 476/268/348 477/267/347 480/273/351 479/274/352
f 477/267/347 478/270/350 481/275/353 480/273/351
f 478/272/350 476/268/348 479/274/352 481/276/353
f 479/274/352 480/273/351 483/277/354 482/278/355
f 480/273/351 481/275/353 484/279/356 483/277/354
f 481/276/353 479/274/352 482/278/355 484/280/356
f 482/278/355 483/277/354 486/281/357 485/282/358
f 483/277/354 484/279/356 487/283/359 486/281/357
f 484/280/356 482/278/355 485/282/358 487/284/359
f 488/285/360 489/286/361 492/287/362 491/288/363
f 489/289/361 490/290/364 493/291/365 492/292/362
f 490/290/364 488/285/360 491/288/363 493/291/365
f 491/288/363 492/287/362 495/293/366 494/294/367
f 492/292/362 493/291/365 496/295/368 495/296/366
f 493/291/365 491/288/363 494/294/367 496/295/368
f 494/294/367 495/293/366 498/297/369 497/298/370
f 495/296/366 496/295/368 499/299/371 498/300/369
f 496/295/368 494/294/367 497/298/370 499/299/371
f 497/298/370 498/297/369 501/301/372 500/302/373
f 498/300/369 499/299/371 502/303/374 501/304/372
f 499/299/371 497/298/370 500/302/373 502/303/374
s 0
usemtl Leaf
f 504/305/375 508/306/375 507/307/375 503/308/375
f 507/307/376 508/306/376 506/309/376 505/310/376
f 510/305/377 514/306/377 513/307/377 509/308/377
f 513/307/378 514/306/378 512/309/378 511/310/378
f 516/305/379 520/306/379 519/307/379 515/308/379
f 519/307/380 520/306/380 518/309/380 517/310/380
